<?xml version="1.0" encoding="UTF-8" standalone="no"?>
<!-- Generator: Adobe Illustrator 16.0.0, SVG Export Plug-In . SVG Version: 6.00 Build 0)  -->

<svg
   xmlns:dc="http://purl.org/dc/elements/1.1/"
   xmlns:cc="http://creativecommons.org/ns#"
   xmlns:rdf="http://www.w3.org/1999/02/22-rdf-syntax-ns#"
   xmlns:svg="http://www.w3.org/2000/svg"
   xmlns="http://www.w3.org/2000/svg"
   xmlns:xlink="http://www.w3.org/1999/xlink"
   xmlns:sodipodi="http://sodipodi.sourceforge.net/DTD/sodipodi-0.dtd"
   xmlns:inkscape="http://www.inkscape.org/namespaces/inkscape"
   version="1.1"
   id="Capa_1"
   x="0px"
   y="0px"
   width="40"
   height="40"
   viewBox="0 0 765.01876 765.01876"
   xml:space="preserve"
   sodipodi:docname="brush-paint.svg"
   inkscape:version="0.92.1 r15371"><metadata
     id="metadata44"><rdf:RDF><cc:Work
         rdf:about=""><dc:format>image/svg+xml</dc:format><dc:type
           rdf:resource="http://purl.org/dc/dcmitype/StillImage" /><dc:title></dc:title></cc:Work></rdf:RDF></metadata><defs
     id="defs42"><linearGradient
       inkscape:collect="always"
       id="linearGradient4905"><stop
         style="stop-color:#ff0000;stop-opacity:1;"
         offset="0"
         id="stop4901" /><stop
         id="stop4913"
         offset="0.51417065"
         style="stop-color:#00ff00;stop-opacity:0.93303573" /><stop
         style="stop-color:#0000ff;stop-opacity:1"
         offset="1"
         id="stop4903" /></linearGradient><inkscape:path-effect
       effect="simplify"
       id="path-effect4579"
       is_visible="true"
       steps="14"
       threshold="0.0011"
       smooth_angles="0"
       helper_size="5"
       simplify_individual_paths="false"
       simplify_just_coalesce="false" /><linearGradient
       inkscape:collect="always"
       xlink:href="#linearGradient4905"
       id="linearGradient4911"
       x1="18.95388"
       y1="23.370628"
       x2="36.446369"
       y2="3.8655901"
       gradientUnits="userSpaceOnUse" /></defs><sodipodi:namedview
     pagecolor="#ffffff"
     bordercolor="#666666"
     borderopacity="1"
     objecttolerance="10"
     gridtolerance="10"
     guidetolerance="10"
     inkscape:pageopacity="0"
     inkscape:pageshadow="2"
     inkscape:window-width="1920"
     inkscape:window-height="1003"
     id="namedview40"
     showgrid="false"
     inkscape:zoom="5.2149125"
     inkscape:cx="-2.6040098"
     inkscape:cy="4.9548201"
     inkscape:window-x="-9"
     inkscape:window-y="-9"
     inkscape:window-maximized="1"
     inkscape:current-layer="g4" /><g
     id="g7"
     transform="translate(0,153.00376)"><g
       id="_x31__2_"><g
         id="g4"><path
           style="fill:#000000;stroke:#000000;stroke-width:6.83115244;stroke-miterlimit:4;stroke-dasharray:none;stroke-opacity:1"
           d="M 3.5960022,602.27568 C 34.32313,569.79057 62.485784,532.65656 75.903662,490.00852 88.827366,453.72947 105.41379,424.18014 129.10699,392.6703 c 20.16379,-17.26544 33.67081,-29.83807 49.20032,-38.76882 12.45232,-7.16122 23.22419,-5.68421 35.53829,-13.85399 19.13998,-29.09596 27.14864,-78.23761 48.37696,-105.92391 37.233,-47.2685 83.54505,-87.0381 125.16865,-130.56481 57.25462,-57.342105 115.48726,-114.042831 179.9052,-163.201345 27.58946,-26.716984 61.16841,-45.548055 92.44771,-66.838785 25.15939,-13.63562 44.30699,-33.79323 89.38823,-5.16151 29.94131,31.57254 -9.6533,99.561142 -9.6533,99.561142 -19.7845,30.7683981 -36.33555,63.637599 -58.05902,92.923161 -76.90995,113.611397 -165.23117,219.224847 -257.3812,320.739107 -29.30842,32.65616 -84.52089,36.23409 -113.05722,69.3376 -5.02223,14.86593 -4.93816,31.16158 -9.01841,48.47202 -5.76769,24.46838 -26.85921,46.42157 -47.72857,57.93234 -36.12589,21.86234 -67.98372,31.17978 -108.25558,41.20727 -45.68376,12.76622 -94.340183,11.26429 -140.9779393,7.01918 l -1.1639632,-1.4161 z M 272.91067,494.07394 c 13.22122,-50.25791 -18.10633,-70.92854 -44.4845,-96.28186 -30.66553,-39.44811 -63.218,5.07999 -86.24902,28.52107 0,0 -17.71839,28.02681 -24.70276,45.29483 -14.46246,35.7561 -24.876635,81.16408 -49.314818,107.4967 114.052878,-17.63906 113.515318,-24.35707 145.870018,-33.15006 39.75203,-16.26836 47.69531,-28.19544 58.88108,-51.88068 z m 62.08525,-179.01558 c -55.23389,-60.92247 -63.43415,-36.12636 -85.28475,27.4415 -0.17258,23.07535 35.46022,58.79285 72.02629,59.84585 90.41353,-16.14519 38.35247,-60.65826 13.25846,-87.28735 z m 91.05129,-2.88042 c 44.75432,-48.59754 85.14255,-101.07125 127.14048,-152.1546 19.12841,-28.7204 42.45676,-54.15548 62.04454,-82.795625 19.71174,-30.135874 54.03825,-82.0534169 59.2826,-89.1938 9.86394,-19.775262 65.49511,-85.37229 13.92979,-76.674379 -28.83084,15.568265 -55.46711,36.088288 -82.06346,56.008423 -63.46198,50.136802 -121.73297,106.586794 -180.81497,161.765301 -33.81381,34.228 -70.79459,66.27251 -99.23053,105.17972 7.06531,36.10703 43.34921,60.19932 67.58599,86.00379 12.32295,11.13697 23.78438,3.46147 32.12556,-8.13883 z"
           id="path4545-5-5"
           inkscape:connector-curvature="0"
           sodipodi:nodetypes="cccsccccccccccsccccccccsccccccccccccccccc" /><path
           style="opacity:1;fill:#ffffff;fill-opacity:1;stroke:#000000;stroke-width:0.02433898;stroke-linecap:square;stroke-linejoin:round;stroke-miterlimit:4;stroke-dasharray:none;stroke-dashoffset:0;stroke-opacity:1;paint-order:markers stroke fill"
           d="M 15.879005,28.627526 C 14.719847,28.228719 13.650267,27.258153 13.36194,26.343475 l -0.114925,-0.364583 0.28825,-0.801277 c 0.587345,-1.632697 1.030386,-2.3267 1.48533,-2.3267 0.448337,0 0.895573,0.329351 2.117513,1.559371 1.530454,1.540572 1.993691,2.140918 2.126298,2.755639 0.05476,0.253837 -0.07892,0.61435 -0.310134,0.836418 -0.354178,0.340164 -1.695923,0.816751 -2.289502,0.813229 -0.133866,-7.94e-4 -0.48746,-0.08542 -0.785765,-0.188046 z"
           id="path4887"
           inkscape:connector-curvature="0"
           transform="matrix(19.125469,0,0,19.125469,0,-153.00376)" /><path
           style="opacity:1;fill:url(#linearGradient4911);fill-opacity:1;stroke:#000000;stroke-width:0.02433898;stroke-linecap:square;stroke-linejoin:round;stroke-miterlimit:4;stroke-dasharray:none;stroke-dashoffset:0;stroke-opacity:1;paint-order:markers stroke fill"
           d="m 20.995696,24.89393 c -0.371078,-0.234488 -2.828873,-2.688245 -3.121042,-3.124373 -0.297292,-0.443775 -0.75201,-0.851909 -0.624865,-1.40159 -0.07129,-0.4386 2.855236,-3.413083 7.708065,-7.930689 4.521608,-4.2092641 7.041799,-6.3302318 9.680649,-8.0961731 1.422297,-0.9518134 1.976396,-1.0659668 2.327498,-0.7816621 0.204997,0.1659969 0.149172,0.454884 -0.229253,1.1863364 -0.589122,1.1387049 -4.405688,7.0798068 -5.571545,8.5737928 -0.494673,0.633898 -1.151058,1.496078 -1.458634,1.915956 -1.150702,1.570845 -5.011453,6.407079 -6.692555,8.275629 -0.931882,1.035791 -1.588114,1.654624 -2.018318,1.382773 z"
           id="path4889"
           inkscape:connector-curvature="0"
           transform="matrix(19.125469,0,0,19.125469,0,-153.00376)"
           sodipodi:nodetypes="cscsscssssc" /><path
           style="opacity:1;fill:#ffffff;fill-opacity:1;stroke:#000000;stroke-width:0.02433898;stroke-linecap:square;stroke-linejoin:round;stroke-miterlimit:4;stroke-dasharray:none;stroke-dashoffset:0;stroke-opacity:1;paint-order:markers stroke fill"
           d="M 4.250348,37.74922 C 4.576443,37.261664 5.2166273,35.832531 5.6397617,34.647525 6.2752374,32.867848 6.3852799,32.5991 6.8056938,31.800067 7.3916538,30.6864 7.7115569,30.25551 8.5746556,29.417384 9.7463267,28.279613 10.420532,27.98998 11.085096,28.33892 c 0.329663,0.173095 2.2962,2.112093 2.574812,2.538755 1.181972,1.810055 0.44288,4.016548 -1.701981,5.081115 -0.769426,0.381891 -2.8130617,1.045254 -4.0942195,1.328981 -0.8324769,0.184361 -3.5287873,0.681788 -3.6956446,0.681788 -0.035797,0 0.00123,-0.09915 0.082285,-0.220339 z"
           id="path4891"
           inkscape:connector-curvature="0"
           transform="matrix(19.125469,0,0,19.125469,0,-153.00376)" /></g></g></g><g
     id="g9"
     transform="translate(0,153.00376)" /><g
     id="g11"
     transform="translate(0,153.00376)" /><g
     id="g13"
     transform="translate(0,153.00376)" /><g
     id="g15"
     transform="translate(0,153.00376)" /><g
     id="g17"
     transform="translate(0,153.00376)" /><g
     id="g19"
     transform="translate(0,153.00376)" /><g
     id="g21"
     transform="translate(0,153.00376)" /><g
     id="g23"
     transform="translate(0,153.00376)" /><g
     id="g25"
     transform="translate(0,153.00376)" /><g
     id="g27"
     transform="translate(0,153.00376)" /><g
     id="g29"
     transform="translate(0,153.00376)" /><g
     id="g31"
     transform="translate(0,153.00376)" /><g
     id="g33"
     transform="translate(0,153.00376)" /><g
     id="g35"
     transform="translate(0,153.00376)" /><g
     id="g37"
     transform="translate(0,153.00376)" /></svg>