<?xml version="1.0" encoding="UTF-8" standalone="no"?>
<!-- Generator: Adobe Illustrator 16.0.0, SVG Export Plug-In . SVG Version: 6.00 Build 0)  -->

<svg
   xmlns:dc="http://purl.org/dc/elements/1.1/"
   xmlns:cc="http://creativecommons.org/ns#"
   xmlns:rdf="http://www.w3.org/1999/02/22-rdf-syntax-ns#"
   xmlns:svg="http://www.w3.org/2000/svg"
   xmlns="http://www.w3.org/2000/svg"
   xmlns:xlink="http://www.w3.org/1999/xlink"
   xmlns:sodipodi="http://sodipodi.sourceforge.net/DTD/sodipodi-0.dtd"
   xmlns:inkscape="http://www.inkscape.org/namespaces/inkscape"
   version="1.1"
   id="Capa_1"
   x="0px"
   y="0px"
   width="40"
   height="40"
   viewBox="0 0 765.01876 765.01876"
   xml:space="preserve"
   sodipodi:docname="eraser.svg"
   inkscape:version="0.92.1 r15371"><metadata
     id="metadata44"><rdf:RDF><cc:Work
         rdf:about=""><dc:format>image/svg+xml</dc:format><dc:type
           rdf:resource="http://purl.org/dc/dcmitype/StillImage" /><dc:title></dc:title></cc:Work></rdf:RDF></metadata><defs
     id="defs42"><linearGradient
       inkscape:collect="always"
       id="linearGradient4905"><stop
         style="stop-color:#ff0000;stop-opacity:1;"
         offset="0"
         id="stop4901" /><stop
         id="stop4913"
         offset="0.51417065"
         style="stop-color:#00ff00;stop-opacity:0.93303573" /><stop
         style="stop-color:#0000ff;stop-opacity:1"
         offset="1"
         id="stop4903" /></linearGradient><inkscape:path-effect
       effect="simplify"
       id="path-effect4579"
       is_visible="true"
       steps="14"
       threshold="0.0011"
       smooth_angles="0"
       helper_size="5"
       simplify_individual_paths="false"
       simplify_just_coalesce="false" /><linearGradient
       inkscape:collect="always"
       xlink:href="#linearGradient4905"
       id="linearGradient4911"
       x1="18.95388"
       y1="23.370628"
       x2="36.446369"
       y2="3.8655901"
       gradientUnits="userSpaceOnUse" /></defs><sodipodi:namedview
     pagecolor="#ffffff"
     bordercolor="#666666"
     borderopacity="1"
     objecttolerance="10"
     gridtolerance="10"
     guidetolerance="10"
     inkscape:pageopacity="0"
     inkscape:pageshadow="2"
     inkscape:window-width="1920"
     inkscape:window-height="1003"
     id="namedview40"
     showgrid="false"
     inkscape:zoom="8"
     inkscape:cx="-0.20594606"
     inkscape:cy="23.903395"
     inkscape:window-x="-9"
     inkscape:window-y="-9"
     inkscape:window-maximized="1"
     inkscape:current-layer="g4" /><g
     id="g7"
     transform="translate(0,153.00376)"><g
       id="_x31__2_"><g
         id="g4"><path
           style="fill:#000000;stroke-width:0.96536309"
           d="m 140.19517,612.42315 c -6.5894,-1.02451 -16.09682,-3.72194 -17.27657,-4.90168 -0.53282,-0.53283 -1.60244,-0.96879 -2.37694,-0.96879 -1.31806,0 -14.90867,-6.36263 -17.0303,-7.97294 C 94.40673,591.66927 86.844324,584.55514 58.624773,556.3538 40.295185,538.03603 24.230725,521.52832 22.92599,519.67 c -1.304735,-1.85833 -2.929584,-3.95282 -3.610748,-4.65443 -0.681164,-0.70161 -1.238461,-1.84306 -1.238461,-2.53654 0,-0.69349 -0.595053,-1.75475 -1.322351,-2.35835 -1.622124,-1.34622 -7.3659065,-12.8492 -7.3659065,-14.75149 0,-0.75782 -0.5108097,-1.88862 -1.1350878,-2.5129 C 7.6291576,492.232 6.2554228,488.77842 5.2006412,485.18165 3.3455237,478.85568 3.2711232,474.98116 2.9227934,366.5685 2.7074659,299.54312 2.9288504,251.81547 3.4729738,247.82883 c 1.7173199,-12.57737 4.1317033,-19.70877 11.4896852,-33.9376 0.892352,-1.72559 1.928811,-3.13744 2.303237,-3.13744 0.374425,0 0.989264,-0.9774 1.366264,-2.17205 0.37705,-1.19465 1.600924,-3.24818 2.719809,-4.56342 3.463512,-4.07133 331.072111,-331.57929 333.692981,-333.59042 7.10428,-5.45159 22.07903,-13.41583 28.10954,-14.94987 1.76455,-0.44888 6.03195,-1.57099 9.48313,-2.49358 4.78867,-1.28015 10.39047,-1.69531 23.6514,-1.7529 15.57821,-0.0676 18.04682,0.14925 23.85325,2.09654 3.56219,1.19465 6.93103,2.1721 7.4863,2.1721 0.55526,0 3.19742,1.05544 5.87145,2.34543 2.67403,1.29 6.11091,2.61977 7.63752,2.95508 1.52661,0.33531 3.01552,1.23472 3.30869,1.99867 0.29316,0.76399 1.0114,1.38908 1.5961,1.38908 1.56224,0 9.69335,5.65686 12.69952,8.83514 1.43019,1.51208 3.06897,2.74918 3.64175,2.74918 1.32024,0 80.44072,79.509695 84.9847,85.402783 1.85835,2.410093 3.81321,4.943447 4.34416,5.629709 0.53095,0.686312 1.7788,2.748428 2.77306,4.582548 0.99421,1.834069 2.98117,5.506751 4.41537,8.161497 2.55319,4.725949 5.19749,11.5799853 6.71276,17.3992787 0.41798,1.6053153 1.26233,3.85742073 1.87631,5.0046734 0.61399,1.1472523 1.11904,2.8746669 1.12227,3.8387445 0.005,0.9640776 0.59601,2.8836014 1.31715,4.2656644 0.72119,1.382013 1.62798,4.640091 2.01513,7.240223 0.38719,2.600082 1.10253,5.212126 1.58962,5.804555 0.52756,0.64154 0.7599,34.606044 0.57461,83.986604 -0.26752,71.29612 -0.52621,83.92361 -1.84669,90.14969 -1.6462,7.76153 -4.1949,15.35498 -5.65404,16.84556 -0.4938,0.5044 -0.8978,1.71232 -0.8978,2.68428 0,0.97195 -1.82378,4.90337 -4.05286,8.73651 -3.47568,5.97677 -14.88743,17.83402 -80.12514,83.25277 -41.83972,41.95589 -76.07224,76.71184 -76.07224,77.23545 0,1.09072 -196.01575,196.53969 -203.8484,203.25899 -10.96318,9.40482 -20.51143,14.84211 -33.06927,18.8314 -4.29101,1.36313 -8.88789,2.92416 -10.21529,3.46894 -3.00641,1.23388 -31.59676,1.88657 -38.13184,0.87051 z m 31.85701,-63.2752 c 8.69462,-2.15436 11.33997,-4.41413 45.85471,-39.17109 50.31516,-50.6682 116.15105,-118.17462 116.61881,-119.57786 0.64114,-1.92339 -77.98666,-80.21281 -80.55948,-80.21281 -1.53238,0 -26.2107,24.09923 -88.35756,86.28434 -47.42727,47.45637 -87.019808,87.16201 -87.983482,88.23473 -1.724942,1.92017 -1.307562,2.39488 26.918502,30.6145 29.22049,29.21385 31.06081,30.71808 41.44368,33.87461 4.06815,1.23676 21.00785,1.2066 26.06482,-0.0464 z m -30.37632,-215.78461 79.12715,-79.15135 v -84.42075 c 0,-46.43139 -0.3556,-84.640459 -0.79019,-84.909038 -1.30948,-0.80932 -145.221677,144.061258 -149.013329,150.005678 -5.850032,9.17141 -8.995348,17.22222 -10.723066,27.44691 -0.993908,5.88196 -2.146461,146.53985 -1.220492,148.95283 0.258989,0.67489 1.150786,1.22707 1.981861,1.22707 0.831025,0 37.118138,-35.61811 80.638066,-79.15135 z"
           id="path5001"
           inkscape:connector-curvature="0" /><path
           style="opacity:1;fill:#ffffff;fill-opacity:1;stroke:#000000;stroke-width:0.43775317;stroke-linecap:square;stroke-linejoin:round;stroke-miterlimit:4;stroke-dasharray:none;stroke-dashoffset:0;stroke-opacity:1;paint-order:markers stroke fill"
           d="m 58.016039,352.65043 c 0.07999,-69.84645 1.005287,-92.39108 4.166605,-101.5124 4.792822,-13.82873 8.855944,-18.35397 84.521896,-94.1348 l 74.02563,-74.138014 0.36385,85.965454 0.36386,85.96546 -80.62659,80.17345 c -44.344615,44.09542 -81.135103,80.17347 -81.756638,80.17347 -0.680076,0 -1.101587,-24.88481 -1.058529,-62.49262 z"
           id="path5003"
           inkscape:connector-curvature="0" /><path
           style="opacity:1;fill:#ffffff;fill-opacity:1;stroke:#000000;stroke-width:0.43775317;stroke-linecap:square;stroke-linejoin:round;stroke-miterlimit:4;stroke-dasharray:none;stroke-dashoffset:0;stroke-opacity:1;paint-order:markers stroke fill"
           d="m 141.1853,549.80351 c -3.05907,-1.12299 -10.29881,-6.57562 -18.29052,-13.77545 -13.24246,-11.93029 -47.979357,-47.34032 -47.979357,-48.90911 0,-1.88017 178.018767,-178.04659 179.918737,-178.04659 2.28509,0 81.02606,77.83868 81.02606,80.09759 0,1.59961 -83.91881,87.7837 -126.36945,129.78057 -15.33434,15.17042 -29.80114,28.5912 -32.14842,29.82392 -5.84906,3.07177 -28.81261,3.72533 -36.15705,1.02914 z"
           id="path5005"
           inkscape:connector-curvature="0" /></g></g></g><g
     id="g9"
     transform="translate(0,153.00376)" /><g
     id="g11"
     transform="translate(0,153.00376)" /><g
     id="g13"
     transform="translate(0,153.00376)" /><g
     id="g15"
     transform="translate(0,153.00376)" /><g
     id="g17"
     transform="translate(0,153.00376)" /><g
     id="g19"
     transform="translate(0,153.00376)" /><g
     id="g21"
     transform="translate(0,153.00376)" /><g
     id="g23"
     transform="translate(0,153.00376)" /><g
     id="g25"
     transform="translate(0,153.00376)" /><g
     id="g27"
     transform="translate(0,153.00376)" /><g
     id="g29"
     transform="translate(0,153.00376)" /><g
     id="g31"
     transform="translate(0,153.00376)" /><g
     id="g33"
     transform="translate(0,153.00376)" /><g
     id="g35"
     transform="translate(0,153.00376)" /><g
     id="g37"
     transform="translate(0,153.00376)" /></svg>