<?xml version="1.0" encoding="UTF-8" standalone="no"?>
<!-- Generator: Adobe Illustrator 16.0.0, SVG Export Plug-In . SVG Version: 6.00 Build 0)  -->

<svg
   xmlns:dc="http://purl.org/dc/elements/1.1/"
   xmlns:cc="http://creativecommons.org/ns#"
   xmlns:rdf="http://www.w3.org/1999/02/22-rdf-syntax-ns#"
   xmlns:svg="http://www.w3.org/2000/svg"
   xmlns="http://www.w3.org/2000/svg"
   xmlns:xlink="http://www.w3.org/1999/xlink"
   xmlns:sodipodi="http://sodipodi.sourceforge.net/DTD/sodipodi-0.dtd"
   xmlns:inkscape="http://www.inkscape.org/namespaces/inkscape"
   version="1.1"
   id="Capa_1"
   x="0px"
   y="0px"
   width="40"
   height="40"
   viewBox="0 0 765.01876 765.01876"
   xml:space="preserve"
   sodipodi:docname="eyedropper.svg"
   inkscape:version="0.92.1 r15371"><metadata
     id="metadata44"><rdf:RDF><cc:Work
         rdf:about=""><dc:format>image/svg+xml</dc:format><dc:type
           rdf:resource="http://purl.org/dc/dcmitype/StillImage" /><dc:title></dc:title></cc:Work></rdf:RDF></metadata><defs
     id="defs42"><linearGradient
       inkscape:collect="always"
       id="linearGradient4905"><stop
         style="stop-color:#ff0000;stop-opacity:1;"
         offset="0"
         id="stop4901" /><stop
         id="stop4913"
         offset="0.51417065"
         style="stop-color:#00ff00;stop-opacity:0.93303573" /><stop
         style="stop-color:#0000ff;stop-opacity:1"
         offset="1"
         id="stop4903" /></linearGradient><inkscape:path-effect
       effect="simplify"
       id="path-effect4579"
       is_visible="true"
       steps="14"
       threshold="0.0011"
       smooth_angles="0"
       helper_size="5"
       simplify_individual_paths="false"
       simplify_just_coalesce="false" /><linearGradient
       inkscape:collect="always"
       xlink:href="#linearGradient4905"
       id="linearGradient4911"
       x1="18.95388"
       y1="23.370628"
       x2="36.446369"
       y2="3.8655901"
       gradientUnits="userSpaceOnUse" /><linearGradient
       inkscape:collect="always"
       xlink:href="#linearGradient4905"
       id="linearGradient5056"
       x1="80.37719"
       y1="537.44983"
       x2="307.86655"
       y2="311.57895"
       gradientUnits="userSpaceOnUse" /></defs><sodipodi:namedview
     pagecolor="#ffffff"
     bordercolor="#666666"
     borderopacity="1"
     objecttolerance="10"
     gridtolerance="10"
     guidetolerance="10"
     inkscape:pageopacity="0"
     inkscape:pageshadow="2"
     inkscape:window-width="1920"
     inkscape:window-height="1003"
     id="namedview40"
     showgrid="false"
     inkscape:zoom="8"
     inkscape:cx="-24.494966"
     inkscape:cy="8.14987"
     inkscape:window-x="-9"
     inkscape:window-y="-9"
     inkscape:window-maximized="1"
     inkscape:current-layer="g4" /><g
     id="g7"
     transform="translate(0,153.00376)"><g
       id="_x31__2_"><g
         id="g4"><path
           style="fill:#000000;stroke-width:1.31705427"
           d="M 46.010254,573.50493 C 27.587566,555.1082 12.115998,538.80068 11.628883,537.26601 c -0.570193,-1.7968 0.08594,-4.36272 1.843569,-7.20625 3.776247,-10.14006 8.300625,-19.97064 12.64352,-29.12904 9.805777,-21.46576 19.629955,-40.99776 23.517074,-46.75544 2.20067,-3.25974 78.849704,-80.77608 170.331034,-172.25859 110.86238,-110.86373 166.32987,-167.2171 166.32987,-168.98643 0,-1.56671 -4.08963,-6.66531 -9.97942,-12.4416 l -9.97954,-9.787034 2.62741,-3.63857 c 3.8447,-5.324479 36.60242,-37.223456 38.22552,-37.223456 0.76037,0 4.56143,3.204441 8.44679,7.121 3.88535,3.916548 8.33672,7.324429 9.89183,7.573067 2.23593,0.357464 22.74844,-19.423901 98.0275,-94.533218 52.35997,-52.241899 97.86702,-96.665509 101.12669,-98.719139 8.92249,-5.62117 14.71401,-8.5989 19.09734,-9.81893 2.17313,-0.60484 6.32184,-2.00295 9.21935,-3.10692 7.31776,-2.78809 36.14508,-2.78809 43.46276,0 2.89752,1.10397 7.05056,2.46477 9.229,3.02401 4.35172,1.1172 7.25434,2.6207 17.11213,8.86366 6.68709,4.23498 22.33703,19.56567 25.18952,24.6757 11.25208,20.157598 13.65095,28.630181 13.65811,48.239377 0.006,13.36581 -0.52956,18.073808 -2.84069,25.024037 -3.72003,11.186966 -3.38302,10.401356 -7.06331,16.463164 -1.7592,2.897539 -3.84096,6.7499169 -4.62607,8.5608609 -0.78511,1.8109551 -44.65713,46.5709191 -97.4933,99.4665941 -71.83949,71.920427 -96.06574,96.942737 -96.06574,99.222417 0,1.95983 2.5868,5.57401 7.24379,10.12067 3.98412,3.88972 7.24379,7.79145 7.24379,8.67053 0,1.78477 -34.86289,37.49371 -38.59787,39.53451 -1.97756,1.08056 -4.02729,-0.381 -12.15062,-8.66403 -5.40278,-5.50896 -10.89495,-9.96387 -12.2838,-9.96387 -1.57988,0 -64.76174,62.22702 -170.26144,167.6883 -92.26207,92.22858 -168.6383,168.11912 -169.72492,168.64579 -1.0865,0.52667 -4.34624,2.37266 -7.24371,4.10241 -7.31136,4.36454 -31.80938,16.28482 -46.75549,22.75032 -8.61405,3.72636 -15.13232,6.61313 -21.217133,9.39656 -3.338962,1.52745 -7.024007,2.77703 -8.188743,2.77703 -1.164737,0 -17.190851,-15.05177 -35.61343,-33.44857 z"
           id="path5047" /><path
           style="fill:#ffffff;stroke-width:1.31705427"
           d="m 94.880919,570.07606 c 7.368761,-3.17825 14.151771,-6.05657 20.671841,-9.15118 2.94506,-1.41122 6.83647,-3.18784 8.64732,-3.94804 1.81095,-0.76015 4.18174,-1.88406 5.26825,-2.49761 3.1035,-1.75234 8.10269,-4.38685 13.82908,-7.28779 3.36728,-1.70578 64.58552,-61.85889 169.65859,-166.70664 90.41477,-90.22081 165.56547,-165.65206 167.00162,-167.62498 2.05304,-2.82039 2.31052,-4.14894 1.20456,-6.21542 -1.86001,-3.47548 -66.51316,-68.09651 -69.99437,-69.95958 -2.15384,-1.15269 -3.25324,-0.95697 -5.41061,0.96318 -8.54584,7.60608 -328.909475,328.73327 -331.658742,332.44911 -2.889088,3.90491 -13.667885,25.14986 -20.989383,41.37001 -1.307863,2.89751 -3.62764,8.00016 -5.155096,11.33923 -1.527456,3.33902 -2.777143,6.59204 -2.777143,7.22884 0,1.83387 41.269744,42.675 43.122899,42.675 0.916606,0 3.878084,-1.18534 6.581184,-2.63413 z"
           id="path5045" /><path
           style="fill:url(#linearGradient5056);stroke-width:8.96984496;fill-opacity:1;stroke:#000000;stroke-opacity:1;stroke-miterlimit:4;stroke-dasharray:none"
           d="m 80.377192,537.44985 c -5.596926,-5.62998 -10.17632,-11.31875 -10.17632,-12.64171 0,-2.07373 8.416159,-21.39771 11.833461,-27.17005 0.643244,-1.08662 2.759073,-5.1416 4.702026,-9.0112 2.828709,-5.63384 20.558901,-24.06787 88.990221,-92.52304 l 85.45777,-85.4875 h 44.03829 c 29.65544,0 44.32069,0.45687 44.9029,1.39888 0.87661,1.41844 -210.67459,213.82521 -215.8731,216.74609 -1.54475,0.8679 -8.43896,4.3111 -15.3205,7.65149 -6.88166,3.3404 -14.70382,7.24344 -17.38268,8.67338 -8.037465,4.29039 -10.02956,3.57189 -21.172068,-7.63634 z"
           id="path5040" /></g></g></g><g
     id="g9"
     transform="translate(0,153.00376)" /><g
     id="g11"
     transform="translate(0,153.00376)" /><g
     id="g13"
     transform="translate(0,153.00376)" /><g
     id="g15"
     transform="translate(0,153.00376)" /><g
     id="g17"
     transform="translate(0,153.00376)" /><g
     id="g19"
     transform="translate(0,153.00376)" /><g
     id="g21"
     transform="translate(0,153.00376)" /><g
     id="g23"
     transform="translate(0,153.00376)" /><g
     id="g25"
     transform="translate(0,153.00376)" /><g
     id="g27"
     transform="translate(0,153.00376)" /><g
     id="g29"
     transform="translate(0,153.00376)" /><g
     id="g31"
     transform="translate(0,153.00376)" /><g
     id="g33"
     transform="translate(0,153.00376)" /><g
     id="g35"
     transform="translate(0,153.00376)" /><g
     id="g37"
     transform="translate(0,153.00376)" /></svg>